PathFileType	4	(X/Y/Z)	jw_hip_rstar.trc	
DataRate	CameraRate	NumFrames	NumMarkers	Units	OrigDataRate	OrigDataStartFrame	OrigNumFrames	
120.00	120.00	41	8	mm	120.00	1442	1647	
Frame#	Time	RAsis			LAsis			RPsis			LPsis			RThighSuperior			RThighInferior			RThighLateral			RPatella			
		X1	Y1	Z1	X2	Y2	Z2	X3	Y3	Z3	X4	Y4	Z4	X5	Y5	Z5	X6	Y6	Z6	X7	Y7	Z7	X8	Y8	Z8	

1442	12.008	-403.89185	233.01552	1061.92250	-174.47960	137.93646	978.44275	-221.33345	390.10577	1029.19260	-170.26929	362.25476	1018.44170	-457.28799	319.66574	861.02930	-492.52676	268.89380	621.90820	-461.08203	225.96123	711.23315	-473.99942	239.30998	529.95270 
1443	12.017	-403.73843	235.38223	1061.13420	-175.04350	137.75801	978.57794	-219.63669	390.16660	1028.38200	-168.43562	362.17957	1018.04320	-456.19492	319.50165	859.85236	-489.88205	264.99365	621.02881	-458.36874	223.29333	711.12024	-470.62238	233.99988	529.79895 
1444	12.025	-403.35913	237.59569	1060.11770	-175.40025	137.82304	978.62524	-217.73828	390.41583	1027.67380	-165.83333	362.56894	1017.85050	-454.66299	319.22086	858.93268	-487.23511	260.99283	620.18018	-455.80103	220.63513	711.03778	-467.47595	228.84645	529.64240 
1445	12.033	-403.17493	239.78883	1059.28050	-175.67984	137.90338	978.70111	-215.88914	390.59799	1027.03100	-164.28976	362.20712	1017.23740	-453.10657	318.58743	857.59265	-484.65363	257.00665	619.39404	-453.42444	217.93860	710.98962	-464.32056	223.68753	529.67206 
1446	12.042	-402.91730	241.68967	1058.45060	-175.78755	138.07961	978.76624	-214.01913	390.85010	1026.22110	-163.00903	361.97208	1016.65220	-450.29205	317.32602	855.93567	-482.37384	253.16238	618.89111	-451.13232	215.38971	711.03754	-461.08246	218.63675	529.85736 
1447	12.050	-402.69385	243.64673	1057.49550	-175.82852	138.27501	978.79462	-212.38545	391.00146	1025.32620	-161.65053	361.81189	1016.02970	-447.91379	316.43826	854.25311	-479.97162	249.30289	618.33252	-448.97998	212.89882	711.11127	-458.04437	213.26166	530.17163 
1448	12.058	-402.35526	245.22185	1056.72560	-175.69933	138.47664	978.87445	-210.96588	391.18362	1024.49650	-160.20808	361.75809	1015.40500	-447.91336	316.79211	853.45135	-478.04889	245.55977	618.12781	-447.03036	210.47032	711.29657	-455.24271	208.36775	530.25537 
1449	12.067	-402.03925	246.66826	1055.79880	-175.36356	138.74840	978.92950	-209.96761	391.25150	1023.61490	-158.87617	361.88309	1014.79570	-447.00116	316.60052	852.62836	-476.12830	241.77524	617.88141	-445.00259	208.12029	711.45605	-452.39606	203.27127	530.43854 
1450	12.075	-401.67081	247.88103	1054.89260	-174.93643	139.01158	978.90509	-208.68883	391.43112	1022.83640	-157.62701	361.93655	1014.30000	-445.64200	316.01309	851.32068	-474.16129	238.02272	617.58960	-443.06247	205.66412	711.60071	-449.89868	198.33286	530.90698 
1451	12.083	-401.32077	248.99773	1053.99260	-174.53813	139.29807	978.90057	-207.38525	391.63846	1022.08710	-156.53833	362.07620	1013.79210	-443.72733	315.16992	849.97406	-472.50613	234.28690	617.47522	-441.18176	203.26855	711.68573	-447.45654	193.25154	531.34900 
1452	12.092	-401.04276	249.88091	1052.95950	-173.94601	139.62004	978.90088	-206.66577	391.89435	1021.23010	-155.67734	362.30405	1013.19800	-442.37027	314.36792	848.68994	-470.65854	230.37790	617.18878	-439.19922	200.83459	711.82782	-444.95599	188.12775	531.75244 
1453	12.100	-400.63382	250.50182	1051.92220	-173.35986	139.93069	978.80780	-205.86201	392.36636	1020.42390	-154.94119	362.57153	1012.59110	-440.46729	313.06732	847.23767	-469.09778	226.56091	617.04059	-437.12183	198.48813	711.97437	-442.75974	183.31192	532.29083 
1454	12.108	-400.28400	250.94113	1050.85180	-172.81070	140.24619	978.87335	-205.30496	392.66452	1019.60050	-154.23180	362.83112	1012.15780	-440.07730	312.68082	846.09857	-467.33499	222.66833	616.79144	-435.07559	196.07353	712.11108	-440.52899	178.30708	532.70789 
1455	12.117	-400.07233	251.45534	1049.66530	-172.22362	140.56805	978.88544	-204.76839	392.97128	1018.88150	-153.78465	363.24390	1011.59280	-439.57047	311.91141	845.20496	-465.67670	218.55424	616.73163	-433.15558	193.47519	712.22943	-438.63818	173.36507	533.14050 
1456	12.125	-399.94086	251.70236	1048.67980	-171.64142	140.97801	978.93103	-204.65828	393.40900	1017.94960	-153.50732	363.76453	1011.05350	-439.01202	311.00232	844.20648	-463.80960	214.24039	616.57587	-431.32281	190.97505	712.39130	-436.18475	168.64409	533.71912 
1457	12.133	-399.61758	251.87415	1047.58940	-171.11479	141.53227	978.93311	-204.42186	393.79465	1017.26530	-153.29652	364.35019	1010.62350	-438.57129	309.77347	843.28156	-462.14578	210.18987	616.49274	-429.46692	188.41754	712.57532	-434.42896	163.90488	534.08264 
1458	12.142	-399.49597	251.97495	1046.65200	-170.53622	142.06804	978.91589	-204.26602	394.18048	1016.59970	-153.10896	364.84494	1010.15730	-437.41153	308.47891	841.79718	-460.43082	205.94479	616.29462	-427.73001	185.80341	712.86261	-432.40652	159.27875	534.56537 
1459	12.150	-399.51740	252.02733	1045.83670	-170.02740	142.62415	978.85260	-204.52159	394.63858	1015.64530	-153.17998	365.38049	1009.50630	-436.92899	307.08246	840.79254	-458.93524	202.13631	616.37067	-426.17026	183.08456	713.14032	-430.79385	154.78987	534.98370 
1460	12.158	-399.50555	251.91277	1044.97950	-169.52829	143.15422	978.93225	-204.56921	395.08325	1014.95320	-153.30942	365.99274	1008.90770	-436.95334	305.45172	840.13782	-457.43442	198.33139	616.32251	-424.78137	180.38983	713.44122	-429.05573	150.58762	535.32092 
1461	12.167	-399.50702	251.78159	1044.27610	-169.05862	143.76088	978.95435	-204.92030	395.53555	1014.26970	-153.57475	366.57858	1008.31560	-436.43768	304.12155	839.04041	-456.10321	194.58797	616.28644	-423.50314	177.69003	713.67609	-427.44745	146.43956	535.66888 
1462	12.175	-399.58383	251.53819	1043.63440	-168.46556	144.40009	979.00043	-205.42857	395.86929	1013.44910	-153.92076	367.15558	1007.77290	-436.20587	302.52557	838.04431	-454.93582	191.19682	616.32764	-422.13452	174.87682	713.88629	-425.85187	142.58987	535.79382 
1463	12.183	-399.74564	251.27008	1043.22630	-167.94017	144.90845	979.04077	-205.96848	396.16806	1012.59560	-154.32909	367.82410	1007.13890	-435.12836	300.31381	837.00177	-453.84320	187.92737	616.33984	-421.04587	172.42139	713.89746	-424.17532	139.01151	535.93756 
1464	12.192	-399.90057	250.78130	1042.83340	-167.43365	145.37663	979.06329	-206.85341	396.49258	1011.74790	-154.88867	368.38400	1006.56100	-435.35757	298.57553	836.61218	-452.73532	184.77542	616.29993	-419.91956	169.99574	713.73840	-422.57913	135.41896	536.00983 
1465	12.200	-400.08102	250.07529	1042.44410	-166.93436	145.68697	979.21643	-207.41019	396.78757	1011.20540	-155.52586	368.99286	1005.95570	-434.81503	296.55652	835.97516	-451.65591	181.71925	616.31696	-418.84216	167.44684	713.86255	-420.99683	132.00589	536.10602 
1466	12.208	-400.13522	249.32990	1042.10950	-166.39618	146.11348	979.25891	-208.09123	397.14200	1010.56590	-156.05670	369.46747	1005.49730	-435.08267	294.64914	835.59320	-450.42566	178.74124	616.22925	-417.96106	165.07642	713.82825	-419.32593	128.73917	536.10901 
1467	12.217	-400.28595	248.76546	1041.86890	-165.91451	146.54813	979.41321	-209.12120	397.38947	1009.81830	-156.66284	370.03076	1005.01510	-434.89886	292.49796	835.01416	-449.19788	175.69446	616.10736	-416.91864	162.59074	713.91473	-417.71344	125.56358	536.12933 
1468	12.225	-400.63690	247.88927	1041.62120	-165.32338	146.95085	979.62531	-209.87910	397.67905	1009.29990	-157.32655	370.62616	1004.54940	-434.86423	290.40869	834.57587	-447.98090	172.80000	615.97589	-416.03690	159.96710	713.88788	-416.05032	122.72402	535.97821 
1469	12.233	-400.85925	247.04095	1041.44790	-164.88588	147.22449	979.86505	-210.65997	397.94858	1008.73350	-157.91614	371.14218	1004.08470	-434.80695	288.06882	834.14856	-446.94705	170.13429	615.89453	-415.09491	157.58795	713.71094	-414.58826	120.13033	535.83215 
1470	12.242	-401.07477	246.14642	1041.40370	-164.38127	147.47365	980.16376	-211.68544	398.07620	1008.18130	-158.74277	371.76105	1003.65580	-435.09283	285.97617	833.81628	-446.06024	167.39688	615.76160	-414.36249	155.27187	713.70984	-413.02280	117.60799	535.48059 
1471	12.250	-401.35638	244.98730	1041.36740	-163.86143	147.74828	980.56256	-212.94522	397.95721	1007.65130	-159.61488	372.11264	1003.42000	-435.23233	283.78079	833.47253	-445.26581	164.71796	615.59821	-413.81046	153.01550	713.55615	-411.53802	115.40186	535.19476 
1472	12.258	-401.54221	243.86623	1041.30100	-163.42513	148.00906	980.93018	-213.89288	397.98853	1007.16900	-160.52762	372.46252	1003.06050	-435.65927	281.69458	833.14429	-444.79880	162.64909	615.54736	-413.32050	151.00903	713.43457	-410.46936	113.24291	535.06525 
1473	12.267	-401.75055	242.74921	1041.26920	-162.98694	148.20990	981.33331	-215.07574	398.11899	1006.64660	-161.61157	372.86407	1002.62060	-436.06940	279.56845	832.83533	-444.23407	160.43546	615.35956	-412.95184	148.83980	713.35144	-409.48544	111.32136	534.77319 
1474	12.275	-402.05481	241.61816	1041.45560	-162.56558	148.42001	981.80389	-216.20891	398.23648	1006.18570	-163.40492	372.80798	1002.13840	-436.86313	277.81250	832.77264	-443.78568	158.53358	615.09875	-412.59409	147.04237	713.19794	-408.35696	109.72376	534.61243 
1475	12.283	-402.11148	240.18945	1041.57590	-162.06607	148.61226	982.21881	-217.49783	398.19772	1005.64260	-164.44855	373.16269	1001.79340	-437.22064	275.79578	832.59601	-443.33823	156.56351	614.92450	-412.30933	145.11736	713.10449	-407.19794	108.08585	534.19305 
1476	12.292	-402.16486	238.81738	1041.57900	-161.55193	148.94057	982.63043	-218.72458	398.19684	1005.01350	-165.74394	373.46680	1001.18170	-437.82828	273.87381	832.36743	-442.70001	155.26039	614.61670	-412.39023	143.52261	712.82397	-406.45886	106.77617	533.83612 
1477	12.300	-402.49255	237.57652	1041.82570	-161.15210	149.20566	982.93500	-220.03520	398.08475	1004.60990	-166.50407	374.04672	1001.12300	-438.56415	272.04819	832.29614	-442.17441	153.62767	614.09570	-412.09488	141.84212	712.63141	-405.76746	105.62165	533.63184 
1478	12.308	-402.55396	236.10696	1041.93070	-160.77974	149.39224	983.27631	-221.48341	397.93396	1004.01530	-168.12524	373.87769	1000.30730	-438.65250	269.96039	831.81885	-441.63208	152.52205	613.44189	-412.01810	140.25412	712.46301	-405.07230	104.52226	533.11298 
1479	12.317	-402.67087	234.67099	1042.10840	-160.39990	149.55672	983.50586	-223.19606	396.98981	1003.12630	-169.32446	373.99417	999.87848	-439.66776	268.21973	831.95831	-442.20599	150.80260	613.55292	-411.86990	138.89330	712.13043	-404.77902	103.78809	532.65302 
1480	12.325	-402.95941	233.39217	1042.28740	-159.98471	149.70662	983.74500	-224.20216	397.34781	1003.11630	-170.15994	374.75974	999.96606	-440.49438	266.54718	831.87537	-442.07166	149.39645	612.91266	-411.77878	137.45847	711.79279	-404.69287	103.00659	532.08057 
1481	12.333	-403.06918	232.10744	1042.44710	-159.62126	149.83160	984.06470	-225.61450	397.08917	1002.45670	-171.76534	374.26059	999.02582	-440.85016	264.84381	831.79700	-442.13513	148.21686	612.48309	-411.68201	136.14789	711.01569	-404.71298	102.46712	531.37427 
1482	12.342	-403.24356	230.55103	1042.60600	-159.30923	149.99704	984.30701	-226.84244	396.81680	1002.12050	-172.76999	374.70050	999.08575	-441.67542	263.24646	831.88458	-442.38138	147.34492	612.04236	-411.61661	135.37045	710.62146	-404.83969	102.10734	530.69049 
